<svg width="25" height="25" viewBox="0 0 25 25" fill="none" xmlns="http://www.w3.org/2000/svg">
<g clip-path="url(#clip0_5_30473)">
<circle cx="12.5" cy="12.5" r="12.5" fill="#2AF5D6"/>
<path d="M7.48098 17.6433C6.89298 17.6433 6.34698 17.5219 5.84298 17.2792C5.33898 17.0272 4.93298 16.6772 4.62498 16.2292L5.43698 15.2772C5.97831 16.0519 6.65964 16.4392 7.48098 16.4392C8.03164 16.4392 8.44698 16.2712 8.72698 15.9352C9.01631 15.5992 9.16098 15.1046 9.16098 14.4512V8.94925H5.61898V7.73125H10.547V14.3812C10.547 15.4639 10.2856 16.2806 9.76298 16.8312C9.24964 17.3726 8.48898 17.6433 7.48098 17.6433ZM16.2547 17.6433C15.5174 17.6433 14.8034 17.5312 14.1127 17.3072C13.4314 17.0739 12.8947 16.7752 12.5027 16.4112L13.0207 15.3192C13.394 15.6552 13.87 15.9306 14.4487 16.1452C15.0367 16.3506 15.6387 16.4532 16.2547 16.4532C17.0667 16.4532 17.6734 16.3179 18.0747 16.0472C18.476 15.7672 18.6767 15.3986 18.6767 14.9412C18.6767 14.6052 18.5647 14.3346 18.3407 14.1292C18.126 13.9146 17.8554 13.7512 17.5287 13.6392C17.2114 13.5272 16.7587 13.4012 16.1707 13.2612C15.4334 13.0839 14.836 12.9066 14.3787 12.7292C13.9307 12.5519 13.5434 12.2812 13.2167 11.9172C12.8994 11.5439 12.7407 11.0446 12.7407 10.4192C12.7407 9.89658 12.876 9.42525 13.1467 9.00525C13.4267 8.58525 13.8467 8.24925 14.4067 7.99725C14.9667 7.74525 15.662 7.61925 16.4927 7.61925C17.0714 7.61925 17.6407 7.69392 18.2007 7.84325C18.7607 7.99258 19.2414 8.20725 19.6427 8.48725L19.1807 9.60725C18.77 9.34592 18.3314 9.14992 17.8647 9.01925C17.398 8.87925 16.9407 8.80925 16.4927 8.80925C15.6994 8.80925 15.102 8.95392 14.7007 9.24325C14.3087 9.53258 14.1127 9.90592 14.1127 10.3632C14.1127 10.6992 14.2247 10.9746 14.4487 11.1892C14.6727 11.3946 14.948 11.5579 15.2747 11.6792C15.6107 11.7912 16.0634 11.9126 16.6327 12.0432C17.37 12.2206 17.9627 12.3979 18.4107 12.5752C18.8587 12.7526 19.2414 13.0232 19.5587 13.3872C19.8854 13.7512 20.0487 14.2412 20.0487 14.8572C20.0487 15.3706 19.9087 15.8419 19.6287 16.2712C19.3487 16.6912 18.924 17.0272 18.3547 17.2792C17.7854 17.5219 17.0854 17.6433 16.2547 17.6433Z" fill="#070C11"/>
</g>
<defs>
<clipPath id="clip0_5_30473">
<rect width="25" height="25" fill="white"/>
</clipPath>
</defs>
</svg>
