<svg width="23" height="15" viewBox="0 0 23 15" fill="none" xmlns="http://www.w3.org/2000/svg">
<rect width="22.8978" height="15" rx="1" fill="white"/>
<mask id="mask0_5_29208" style="mask-type:alpha" maskUnits="userSpaceOnUse" x="0" y="0" width="23" height="15">
<rect width="22.8978" height="15" rx="1" fill="white"/>
</mask>
<g mask="url(#mask0_5_29208)">
<path fill-rule="evenodd" clip-rule="evenodd" d="M22.8978 0H0V1H22.8978V0ZM22.8978 2H0V3H22.8978V2ZM0 4.00007H22.8978V5.00007H0V4.00007ZM22.8978 6.00007H0V7.00007H22.8978V6.00007ZM0 8.00014H22.8978V9.00014H0V8.00014ZM22.8978 10.0001H0V11.0001H22.8978V10.0001ZM0 12.0002H22.8978V13.0002H0V12.0002ZM22.8978 14.0002H0V15.0002H22.8978V14.0002Z" fill="#D02F44"/>
<rect width="9.81333" height="7" fill="#46467F"/>
<g filter="url(#filter0_d_5_29208)">
<path fill-rule="evenodd" clip-rule="evenodd" d="M1.63576 2C1.93686 2 2.18095 1.77614 2.18095 1.5C2.18095 1.22386 1.93686 1 1.63576 1C1.33466 1 1.09058 1.22386 1.09058 1.5C1.09058 1.77614 1.33466 2 1.63576 2ZM3.81704 2C4.11813 2 4.36222 1.77614 4.36222 1.5C4.36222 1.22386 4.11813 1 3.81704 1C3.51594 1 3.27185 1.22386 3.27185 1.5C3.27185 1.77614 3.51594 2 3.81704 2ZM6.5415 1.5C6.5415 1.77614 6.29741 2 5.99631 2C5.69521 2 5.45113 1.77614 5.45113 1.5C5.45113 1.22386 5.69521 1 5.99631 1C6.29741 1 6.5415 1.22386 6.5415 1.5ZM8.17759 2C8.47868 2 8.72277 1.77614 8.72277 1.5C8.72277 1.22386 8.47868 1 8.17759 1C7.87649 1 7.6324 1.22386 7.6324 1.5C7.6324 1.77614 7.87649 2 8.17759 2ZM3.27158 2.49979C3.27158 2.77593 3.0275 2.99979 2.7264 2.99979C2.4253 2.99979 2.18121 2.77593 2.18121 2.49979C2.18121 2.22365 2.4253 1.99979 2.7264 1.99979C3.0275 1.99979 3.27158 2.22365 3.27158 2.49979ZM4.90767 2.99979C5.20877 2.99979 5.45286 2.77593 5.45286 2.49979C5.45286 2.22365 5.20877 1.99979 4.90767 1.99979C4.60657 1.99979 4.36249 2.22365 4.36249 2.49979C4.36249 2.77593 4.60657 2.99979 4.90767 2.99979ZM7.63213 2.49979C7.63213 2.77593 7.38805 2.99979 7.08695 2.99979C6.78585 2.99979 6.54176 2.77593 6.54176 2.49979C6.54176 2.22365 6.78585 1.99979 7.08695 1.99979C7.38805 1.99979 7.63213 2.22365 7.63213 2.49979ZM8.17759 4C8.47868 4 8.72277 3.77615 8.72277 3.5C8.72277 3.22386 8.47868 3 8.17759 3C7.87649 3 7.6324 3.22386 7.6324 3.5C7.6324 3.77615 7.87649 4 8.17759 4ZM6.5415 3.5C6.5415 3.77615 6.29741 4 5.99631 4C5.69521 4 5.45113 3.77615 5.45113 3.5C5.45113 3.22386 5.69521 3 5.99631 3C6.29741 3 6.5415 3.22386 6.5415 3.5ZM3.81704 4C4.11813 4 4.36222 3.77615 4.36222 3.5C4.36222 3.22386 4.11813 3 3.81704 3C3.51594 3 3.27185 3.22386 3.27185 3.5C3.27185 3.77615 3.51594 4 3.81704 4ZM2.18095 3.5C2.18095 3.77615 1.93686 4 1.63576 4C1.33466 4 1.09058 3.77615 1.09058 3.5C1.09058 3.22386 1.33466 3 1.63576 3C1.93686 3 2.18095 3.22386 2.18095 3.5ZM2.7264 4.99979C3.0275 4.99979 3.27158 4.77594 3.27158 4.49979C3.27158 4.22365 3.0275 3.99979 2.7264 3.99979C2.4253 3.99979 2.18121 4.22365 2.18121 4.49979C2.18121 4.77594 2.4253 4.99979 2.7264 4.99979ZM5.45286 4.49979C5.45286 4.77594 5.20877 4.99979 4.90767 4.99979C4.60657 4.99979 4.36249 4.77594 4.36249 4.49979C4.36249 4.22365 4.60657 3.99979 4.90767 3.99979C5.20877 3.99979 5.45286 4.22365 5.45286 4.49979ZM7.08695 4.99979C7.38805 4.99979 7.63213 4.77594 7.63213 4.49979C7.63213 4.22365 7.38805 3.99979 7.08695 3.99979C6.78585 3.99979 6.54176 4.22365 6.54176 4.49979C6.54176 4.77594 6.78585 4.99979 7.08695 4.99979ZM8.72277 5.50007C8.72277 5.77621 8.47868 6.00007 8.17759 6.00007C7.87649 6.00007 7.6324 5.77621 7.6324 5.50007C7.6324 5.22393 7.87649 5.00007 8.17759 5.00007C8.47868 5.00007 8.72277 5.22393 8.72277 5.50007ZM5.99631 6.00007C6.29741 6.00007 6.5415 5.77621 6.5415 5.50007C6.5415 5.22393 6.29741 5.00007 5.99631 5.00007C5.69521 5.00007 5.45113 5.22393 5.45113 5.50007C5.45113 5.77621 5.69521 6.00007 5.99631 6.00007ZM4.36222 5.50007C4.36222 5.77621 4.11813 6.00007 3.81704 6.00007C3.51594 6.00007 3.27185 5.77621 3.27185 5.50007C3.27185 5.22393 3.51594 5.00007 3.81704 5.00007C4.11813 5.00007 4.36222 5.22393 4.36222 5.50007ZM1.63576 6.00007C1.93686 6.00007 2.18095 5.77621 2.18095 5.50007C2.18095 5.22393 1.93686 5.00007 1.63576 5.00007C1.33466 5.00007 1.09058 5.22393 1.09058 5.50007C1.09058 5.77621 1.33466 6.00007 1.63576 6.00007Z" fill="url(#paint0_linear_5_29208)"/>
</g>
</g>
<defs>
<filter id="filter0_d_5_29208" x="1.09058" y="1" width="7.6322" height="7" filterUnits="userSpaceOnUse" color-interpolation-filters="sRGB">
<feFlood flood-opacity="0" result="BackgroundImageFix"/>
<feColorMatrix in="SourceAlpha" type="matrix" values="0 0 0 0 0 0 0 0 0 0 0 0 0 0 0 0 0 0 127 0" result="hardAlpha"/>
<feOffset dy="2"/>
<feColorMatrix type="matrix" values="0 0 0 0 0 0 0 0 0 0 0 0 0 0 0 0 0 0 0.06 0"/>
<feBlend mode="normal" in2="BackgroundImageFix" result="effect1_dropShadow_5_29208"/>
<feBlend mode="normal" in="SourceGraphic" in2="effect1_dropShadow_5_29208" result="shape"/>
</filter>
<linearGradient id="paint0_linear_5_29208" x1="1.09058" y1="1" x2="1.09058" y2="6" gradientUnits="userSpaceOnUse">
<stop stop-color="white"/>
<stop offset="1" stop-color="#F0F0F0"/>
</linearGradient>
</defs>
</svg>
