<svg width="29" height="29" viewBox="0 0 29 29" fill="none" xmlns="http://www.w3.org/2000/svg">
<path d="M14 26C20.6274 26 26 20.6274 26 14C26 7.37258 20.6274 2 14 2C7.37258 2 2 7.37258 2 14C2 20.6274 7.37258 26 14 26Z" stroke="#2AF5D6"/>
<path d="M14.0016 26C17.26 26 19.9016 20.6274 19.9016 14C19.9016 7.37258 17.26 2 14.0016 2C10.7431 2 8.10156 7.37258 8.10156 14C8.10156 20.6274 10.7431 26 14.0016 26Z" stroke="#2AF5D6"/>
<path d="M22.6984 6.2001C20.4984 7.4001 17.3984 8.1001 13.8984 8.1001C10.2984 8.1001 7.09844 7.3001 4.89844 6.1001" stroke="#2AF5D6"/>
<path d="M22.6984 21.7999C20.4984 20.5999 17.3984 19.8999 13.8984 19.8999C10.2984 19.8999 7.09844 20.6999 4.89844 21.8999" stroke="#2AF5D6"/>
<path d="M2 14H26" stroke="#2AF5D6"/>
<path d="M14 26V2" stroke="#2AF5D6"/>
</svg>
