<svg width="22" height="22" viewBox="0 0 22 22" fill="none" xmlns="http://www.w3.org/2000/svg">
<path fill-rule="evenodd" clip-rule="evenodd" d="M13.1155 15.5444C9.85038 17.4713 5.62729 16.3804 3.70138 13.1162C1.77546 9.85102 2.86538 5.62794 6.13054 3.70202H6.12963C9.39479 1.77702 13.6179 2.8651 15.5438 6.13027C17.1553 8.86285 16.6493 12.2609 14.53 14.427C14.508 14.4454 14.4805 14.4536 14.4603 14.4738C14.4392 14.4939 14.4319 14.5214 14.4135 14.5434C14.0285 14.9184 13.5986 15.2584 13.1155 15.5444ZM20.7981 19.5154L16.3816 15.0989C18.5991 12.3544 19.0189 8.41276 17.1232 5.19893C14.6831 1.06293 9.3334 -0.317573 5.19923 2.12259H5.19831C1.06323 4.56184 -0.317269 9.91059 2.12198 14.0466C3.74448 16.7975 6.65398 18.3293 9.63773 18.3293C11.1401 18.3293 12.6618 17.9406 14.0469 17.1238C14.4172 16.9048 14.7573 16.6554 15.0827 16.3933L19.502 20.8116C19.6807 20.9903 19.9154 21.0802 20.1501 21.0802C20.3847 21.0802 20.6194 20.9903 20.7981 20.8116C21.1556 20.4532 21.1556 19.8738 20.7981 19.5154Z" fill="black"/>
</svg>
