<svg width="19" height="16" viewBox="0 0 19 16" fill="none" xmlns="http://www.w3.org/2000/svg">
<path fill-rule="evenodd" clip-rule="evenodd" d="M0.888428 15.84L9.63357 0.892578L18.3787 15.84H0.888428ZM9.54757 7.28019C8.9196 7.28019 8.41722 7.78257 8.41722 8.41054V9.33157H10.6779V8.41054C10.6779 7.78257 10.1755 7.28019 9.54757 7.28019ZM11.599 13.4553H7.48572C7.31826 13.4553 7.1822 13.3087 7.1822 13.1308V9.63509C7.1822 9.46764 7.31826 9.33157 7.48572 9.33157H7.79971V8.41054C7.79971 7.44765 8.58468 6.66268 9.54757 6.66268C10.5105 6.66268 11.2954 7.44765 11.2954 8.42101V9.34204H11.599C11.7664 9.34204 11.9025 9.4781 11.9025 9.64556V13.1518C11.9025 13.3192 11.7664 13.4553 11.599 13.4553Z" fill="#538FFF"/>
</svg>
