<svg width="16" height="24" viewBox="0 0 16 24" fill="none" xmlns="http://www.w3.org/2000/svg">
<path fill-rule="evenodd" clip-rule="evenodd" d="M8.70241 2.55044C8.70241 2.93896 8.38738 3.25399 7.9985 3.25399C7.60998 3.25399 7.29495 2.93896 7.29495 2.55044V0.70391C7.29495 0.315031 7.60998 0 7.9985 0C8.38738 0 8.70241 0.315031 8.70241 0.70391V2.55044ZM2.01315 4.90139C1.83308 4.90139 1.65301 4.83264 1.5155 4.69549L0.206262 3.38698C-0.068754 3.11197 -0.068754 2.66634 0.206262 2.39169C0.480914 2.11667 0.926542 2.11667 1.20156 2.39133L2.51043 3.69983C2.78545 3.97449 2.78581 4.42011 2.51079 4.69513C2.37329 4.83264 2.19322 4.90139 2.01315 4.90139ZM13.9899 4.90139C14.1703 4.90139 14.3504 4.83264 14.4879 4.69477L15.7942 3.38626C16.0689 3.11124 16.0685 2.66561 15.7935 2.39096C15.5185 2.11667 15.0729 2.11667 14.7982 2.39205L13.4919 3.7002C13.2172 3.97521 13.2176 4.42084 13.4926 4.69549C13.6301 4.83264 13.8102 4.90139 13.9899 4.90139ZM14.7459 11.115C14.7459 11.2539 14.7419 11.3893 14.7346 11.5213L14.5021 12.9106C14.1267 14.202 13.3784 15.1045 12.6945 15.9281C11.9215 16.8594 11.2431 17.6794 11.0968 18.9729C11.9921 19.332 12.6265 20.2083 12.6265 21.2302C12.6265 22.5696 11.5352 23.6591 10.1939 23.6591H5.79985C4.4586 23.6591 3.36727 22.5696 3.36727 21.2302C3.36727 20.2083 4.0017 19.332 4.89696 18.9729C4.75072 17.6794 4.07227 16.8598 3.29924 15.9285C2.65863 15.1569 1.962 14.3162 1.56766 13.1521L1.2781 11.7749C1.25845 11.5639 1.2479 11.3445 1.2479 11.115C1.25045 9.26918 1.87797 7.67729 3.06243 6.51174C4.29781 5.296 6.09597 4.6121 7.99561 4.64011C9.90144 4.61683 11.696 5.29636 12.9317 6.51247C14.1158 7.67765 14.7433 9.26918 14.7459 11.115ZM4.04935 7.51541C5.02064 6.55976 6.45756 6.0221 7.98506 6.04756H8.00616C9.53439 6.02137 10.9731 6.56013 11.9444 7.51577C12.8542 8.41103 13.3362 9.65624 13.3384 11.1168C13.3406 12.9459 12.5395 13.9114 11.612 15.029L11.6116 15.0296C10.8025 16.0042 9.89817 17.094 9.69918 18.7987H8.69916V13.9223H9.80359C10.1921 13.9223 10.5071 13.6072 10.5071 13.2187C10.5071 12.8298 10.1921 12.5148 9.80359 12.5148H6.11634C5.72746 12.5148 5.41243 12.8298 5.41243 13.2187C5.41243 13.6072 5.72746 13.9223 6.11634 13.9223H7.2917V18.7987H6.29459C6.0956 17.094 5.19125 16.0042 4.38221 15.0296C3.45421 13.9117 2.65318 12.9462 2.65536 11.1168C2.65754 9.65587 3.13955 8.41066 4.04935 7.51541ZM5.79985 20.2062H10.1939C10.7592 20.2062 11.219 20.6656 11.219 21.2302C11.219 21.7933 10.7592 22.2517 10.1939 22.2517H5.79985C5.23454 22.2517 4.77473 21.7933 4.77473 21.2302C4.77473 20.6656 5.23454 20.2062 5.79985 20.2062Z" fill="#538FFF"/>
</svg>
