<svg width="81" height="24" viewBox="0 0 81 24" fill="none" xmlns="http://www.w3.org/2000/svg">
<path d="M34.7467 5.58497V7.28568H37.7244V8.48152H34.7467V10.8257H33.2578V4.39111H38.1204V5.58695H34.7467V5.58497Z" fill="#070C11"/>
<path d="M42.6469 6.35314C43.0568 6.71743 43.2627 7.26784 43.2627 8.00237V10.8237H41.9203V10.2079C41.651 10.6673 41.1482 10.8969 40.4136 10.8969C40.0335 10.8969 39.7048 10.8336 39.4257 10.7029C39.1465 10.5742 38.9347 10.396 38.7862 10.1703C38.6397 9.94462 38.5664 9.68724 38.5664 9.39817C38.5664 8.93885 38.7387 8.57653 39.0851 8.31321C39.4316 8.04988 39.9662 7.91723 40.6888 7.91723H41.8292C41.8292 7.60441 41.7342 7.36485 41.5441 7.19656C41.3541 7.02827 41.069 6.94314 40.6888 6.94314C40.4255 6.94314 40.1661 6.98472 39.9127 7.06787C39.6593 7.15103 39.4415 7.2619 39.2653 7.40247L38.7505 6.40065C39.0198 6.21059 39.3425 6.06408 39.7207 5.95914C40.0968 5.85421 40.4849 5.80273 40.8829 5.80273C41.6491 5.80669 42.2371 5.98884 42.6469 6.35314ZM41.4253 9.76445C41.6154 9.6516 41.75 9.48331 41.8292 9.26354V8.75868H40.8452C40.2572 8.75868 39.9622 8.95072 39.9622 9.3368C39.9622 9.52093 40.0335 9.66546 40.178 9.77237C40.3226 9.87928 40.5205 9.93274 40.77 9.93274C41.0175 9.93472 41.2353 9.8773 41.4253 9.76445Z" fill="#070C11"/>
<path d="M45.0244 10.7464C44.6324 10.6455 44.3196 10.5188 44.0859 10.3643L44.5631 9.33479C44.7828 9.47536 45.0501 9.59019 45.363 9.67929C45.6758 9.76838 45.9826 9.81194 46.2816 9.81194C46.8874 9.81194 47.1924 9.66147 47.1924 9.36251C47.1924 9.22194 47.1092 9.12097 46.9449 9.05959C46.7786 8.99821 46.5251 8.94674 46.1826 8.90318C45.7787 8.8418 45.4441 8.77053 45.1808 8.69134C44.9175 8.61214 44.6898 8.47157 44.4958 8.26764C44.3017 8.0657 44.2067 7.77664 44.2067 7.40442C44.2067 7.0916 44.2978 6.81442 44.4779 6.57288C44.6581 6.33133 44.9214 6.14324 45.2679 6.00663C45.6144 5.872 46.0222 5.80469 46.4954 5.80469C46.8439 5.80469 47.1924 5.84231 47.5388 5.91952C47.8853 5.99674 48.1724 6.10167 48.3981 6.2363L47.9209 7.25593C47.4854 7.01043 47.0102 6.88768 46.4954 6.88768C46.1886 6.88768 45.9589 6.93123 45.8064 7.01637C45.654 7.1015 45.5768 7.21237 45.5768 7.347C45.5768 7.49945 45.6599 7.60835 45.8243 7.66972C45.9906 7.7311 46.2539 7.78852 46.6142 7.84395C47.0181 7.91127 47.3488 7.98254 47.6061 8.05976C47.8635 8.13697 48.0872 8.27556 48.2773 8.47751C48.4674 8.67946 48.5624 8.96258 48.5624 9.32291C48.5624 9.62979 48.4713 9.90103 48.2872 10.1406C48.1031 10.3802 47.8358 10.5643 47.4834 10.6969C47.131 10.8276 46.7132 10.8949 46.2282 10.8949C45.8183 10.8989 45.4164 10.8494 45.0244 10.7464Z" fill="#070C11"/>
<path d="M52.6311 10.5861C52.4905 10.6911 52.3163 10.7683 52.1124 10.8198C51.9064 10.8712 51.6906 10.899 51.4649 10.899C50.8769 10.899 50.4215 10.7485 50.1008 10.4476C49.7801 10.1466 49.6177 9.70708 49.6177 9.12302V7.09366H48.8555V5.99087H49.6177V4.78711H51.0511V5.99087H52.2826V7.09366H51.0511V9.10718C51.0511 9.31507 51.1046 9.47742 51.2115 9.59027C51.3184 9.70312 51.4709 9.76054 51.6669 9.76054C51.8926 9.76054 52.0866 9.69916 52.245 9.57641L52.6311 10.5861Z" fill="#070C11"/>
<path d="M58.1013 8.75664H54.3593C54.4266 9.06352 54.585 9.30507 54.8365 9.48326C55.0879 9.66144 55.4007 9.75054 55.7749 9.75054C56.0323 9.75054 56.26 9.71292 56.4599 9.6357C56.6599 9.55849 56.844 9.43772 57.0163 9.27339L57.7785 10.101C57.3133 10.6336 56.6322 10.9008 55.7373 10.9008C55.179 10.9008 54.686 10.7919 54.2583 10.5742C53.8287 10.3564 53.4981 10.0554 53.2664 9.66936C53.0328 9.28329 52.918 8.84574 52.918 8.35473C52.918 7.87164 53.0328 7.43409 53.2625 7.04406C53.4921 6.656 53.8069 6.3511 54.2088 6.13332C54.6107 5.91553 55.0582 5.80664 55.5552 5.80664C56.0382 5.80664 56.4778 5.91157 56.8698 6.11946C57.2618 6.32735 57.5707 6.62631 57.7944 7.01634C58.0181 7.40637 58.129 7.85778 58.129 8.37255C58.129 8.39037 58.1191 8.51906 58.1013 8.75664ZM54.7454 7.16681C54.5256 7.35094 54.389 7.60238 54.3415 7.92114H56.7767C56.7272 7.60832 56.5926 7.35886 56.3728 7.17275C56.1531 6.98664 55.8818 6.89161 55.5631 6.89161C55.2384 6.89161 54.9671 6.98268 54.7454 7.16681Z" fill="#070C11"/>
<path d="M61.1509 5.99077C61.4419 5.86802 61.7765 5.80664 62.1567 5.80664V7.13117C61.9983 7.11929 61.8894 7.11335 61.8359 7.11335C61.4261 7.11335 61.1034 7.22819 60.8717 7.45785C60.6381 7.68751 60.5233 8.03201 60.5233 8.49134V10.8256H59.0898V5.8799H60.4599V6.53325C60.6282 6.29369 60.8599 6.11352 61.1509 5.99077Z" fill="#070C11"/>
<path d="M67.3565 4.67621C67.7762 4.86628 68.099 5.13554 68.3267 5.48598C68.5524 5.83444 68.6672 6.24823 68.6672 6.72736C68.6672 7.19857 68.5543 7.61236 68.3267 7.96478C68.099 8.31719 67.7762 8.58645 67.3565 8.77454C66.9368 8.95867 66.4418 9.05172 65.8716 9.05172H64.5748V10.8257H63.0859V4.39111H65.8716C66.4418 4.39111 66.9368 4.48615 67.3565 4.67621ZM66.8081 7.549C67.0417 7.35696 67.1565 7.08175 67.1565 6.72538C67.1565 6.36306 67.0397 6.08588 66.8081 5.89383C66.5745 5.69981 66.2359 5.60477 65.7885 5.60477H64.5748V7.83806H65.7885C66.2359 7.83806 66.5764 7.74105 66.8081 7.549Z" fill="#070C11"/>
<path d="M73.3344 6.35314C73.7442 6.71743 73.9501 7.26784 73.9501 8.00237V10.8237H72.6078V10.2079C72.3385 10.6673 71.8356 10.8969 71.1011 10.8969C70.721 10.8969 70.3923 10.8336 70.1132 10.7029C69.834 10.5742 69.6222 10.396 69.4737 10.1703C69.3272 9.94462 69.2539 9.68724 69.2539 9.39817C69.2539 8.93885 69.4262 8.57653 69.7726 8.31321C70.1191 8.04988 70.6537 7.91723 71.3763 7.91723H72.5167C72.5167 7.60441 72.4217 7.36485 72.2316 7.19656C72.0416 7.02827 71.7565 6.94314 71.3763 6.94314C71.113 6.94314 70.8536 6.98472 70.6002 7.06787C70.3468 7.15103 70.129 7.2619 69.9528 7.40247L69.438 6.40065C69.7073 6.21059 70.03 6.06408 70.4082 5.95914C70.7843 5.85421 71.1724 5.80273 71.5703 5.80273C72.3346 5.80669 72.9226 5.98884 73.3344 6.35314ZM72.1109 9.76445C72.3009 9.6516 72.4355 9.48331 72.5147 9.26354V8.75868H71.5308C70.9427 8.75868 70.6477 8.95072 70.6477 9.3368C70.6477 9.52093 70.719 9.66546 70.8635 9.77237C71.0081 9.87928 71.2061 9.93274 71.4555 9.93274C71.703 9.93472 71.9208 9.8773 72.1109 9.76445Z" fill="#070C11"/>
<path d="M80.0648 5.87988L77.8315 11.1285C77.6038 11.6987 77.3246 12.1006 76.99 12.3323C76.6554 12.5659 76.2535 12.6807 75.7803 12.6807C75.5229 12.6807 75.2695 12.6411 75.0181 12.5619C74.7666 12.4827 74.5607 12.3719 74.4023 12.2313L74.927 11.2117C75.0379 11.3087 75.1646 11.3859 75.3091 11.4413C75.4537 11.4968 75.5962 11.5245 75.7368 11.5245C75.9328 11.5245 76.0912 11.477 76.2139 11.3819C76.3367 11.2869 76.4475 11.1285 76.5446 10.9087L76.5624 10.8632L74.4221 5.87988H75.9011L77.289 9.23576L78.6868 5.87988H80.0648Z" fill="#070C11"/>
<path d="M33.2442 14.9997H34.0381V17.2389C34.0381 17.5933 34.048 17.825 34.0678 17.9299C34.1014 18.0982 34.1826 18.2348 34.3113 18.3377C34.44 18.4407 34.6142 18.4922 34.836 18.4922C35.0617 18.4922 35.2319 18.4427 35.3468 18.3476C35.4616 18.2506 35.5309 18.1318 35.5527 17.9913C35.5764 17.8507 35.5883 17.6171 35.5883 17.2884V15.0017H36.3823V17.1736C36.3823 17.6705 36.3605 18.021 36.3169 18.2249C36.2734 18.4308 36.1942 18.603 36.0793 18.7436C35.9645 18.8842 35.8101 18.997 35.616 19.0802C35.422 19.1633 35.1706 19.2049 34.8597 19.2049C34.4836 19.2049 34.1985 19.1594 34.0044 19.0683C33.8104 18.9772 33.656 18.8584 33.5431 18.7139C33.4303 18.5674 33.357 18.415 33.3194 18.2546C33.2679 18.017 33.2422 17.6685 33.2422 17.2053V14.9997H33.2442ZM33.9213 14.7621V14.083H34.5687V14.7621H33.9213ZM35.0755 14.7621V14.083H35.7249V14.7621H35.0755Z" fill="#FF0000"/>
<path d="M37.7617 14.9995H39.3357C39.6466 14.9995 39.8802 15.0134 40.0326 15.0411C40.1851 15.0688 40.3217 15.1242 40.4425 15.2114C40.5632 15.2985 40.6642 15.4133 40.7454 15.5578C40.8266 15.7024 40.8662 15.8627 40.8662 16.0409C40.8662 16.2349 40.8167 16.4131 40.7177 16.5735C40.6187 16.7339 40.484 16.8566 40.3138 16.9378C40.5533 17.0111 40.7375 17.1358 40.8662 17.312C40.9948 17.4882 41.0602 17.6961 41.0602 17.9357C41.0602 18.1237 41.0186 18.3059 40.9355 18.4841C40.8523 18.6623 40.7375 18.8028 40.5949 18.9098C40.4504 19.0167 40.2742 19.082 40.0623 19.1058C39.9297 19.1216 39.6109 19.1295 39.1041 19.1335H37.7637V14.9995H37.7617ZM38.5556 15.6885V16.6448H39.0764C39.3852 16.6448 39.5792 16.6408 39.6545 16.6309C39.7911 16.6151 39.898 16.5656 39.9752 16.4824C40.0524 16.3993 40.092 16.2924 40.092 16.1597C40.092 16.031 40.0584 15.9281 39.9911 15.8489C39.9237 15.7697 39.8247 15.7202 39.6921 15.7043C39.6129 15.6944 39.3872 15.6905 39.013 15.6905H38.5556V15.6885ZM38.5556 17.3318V18.4366H39.2922C39.5792 18.4366 39.7594 18.4286 39.8366 18.4108C39.9554 18.389 40.0504 18.3336 40.1257 18.2465C40.2009 18.1594 40.2366 18.0426 40.2366 17.8961C40.2366 17.7713 40.2088 17.6664 40.1514 17.5813C40.094 17.4941 40.0108 17.4328 39.9039 17.3912C39.795 17.3516 39.5614 17.3318 39.1991 17.3318H38.5556Z" fill="#FF0000"/>
<path d="M42.2695 19.1335V14.9995H45.1879V15.6984H43.0635V16.6151H45.0394V17.312H43.0635V18.4366H45.2631V19.1335H42.2695Z" fill="#FF0000"/>
<path d="M46.4805 19.1335V14.9995H48.1535C48.5732 14.9995 48.8801 15.0371 49.0701 15.1104C49.2602 15.1856 49.4127 15.3163 49.5275 15.5064C49.6423 15.6964 49.6997 15.9142 49.6997 16.1577C49.6997 16.4686 49.6126 16.724 49.4384 16.9259C49.2642 17.1279 49.0048 17.2546 48.6603 17.308C48.8326 17.413 48.9731 17.5298 49.086 17.6545C49.1988 17.7812 49.3493 18.005 49.5394 18.3257L50.0205 19.1315H49.0701L48.496 18.2326C48.292 17.9119 48.1515 17.708 48.0762 17.6248C48.001 17.5417 47.9218 17.4842 47.8367 17.4526C47.7535 17.4209 47.6189 17.4051 47.4367 17.4051H47.2764V19.1315H46.4805V19.1335ZM47.2744 16.7477H47.8624C48.2445 16.7477 48.4821 16.7319 48.5771 16.6963C48.6722 16.6626 48.7454 16.6032 48.7989 16.522C48.8523 16.4389 48.8801 16.3359 48.8801 16.2112C48.8801 16.0726 48.8444 15.9597 48.7732 15.8746C48.7019 15.7895 48.6029 15.734 48.4742 15.7123C48.4089 15.7024 48.2168 15.6984 47.8941 15.6984H47.2744V16.7477Z" fill="#FF0000"/>
<path d="M51.4443 19.1335L50.5039 14.9995H51.3176L51.9116 17.8386L52.6303 14.9995H53.5747L54.2657 17.8862L54.8695 14.9995H55.6694L54.7131 19.1335H53.8697L53.0856 16.0429L52.3036 19.1335H51.4443Z" fill="#FF0000"/>
<path d="M56.6172 19.1335V14.9995H59.5355V15.6984H57.4111V16.6151H59.387V17.312H57.4111V18.4366H59.6107V19.1335H56.6172Z" fill="#FF0000"/>
<path d="M60.7969 19.1335V14.9995H61.5908V19.1335H60.7969Z" fill="#FF0000"/>
<path d="M62.6875 17.7891L63.4616 17.7099C63.5091 17.9831 63.6022 18.1831 63.7447 18.3098C63.8873 18.4385 64.0793 18.5018 64.3209 18.5018C64.5763 18.5018 64.7703 18.4444 64.899 18.3316C65.0297 18.2167 65.093 18.0841 65.093 17.9316C65.093 17.8346 65.0653 17.7515 65.0119 17.6822C64.9564 17.6129 64.8614 17.5535 64.7268 17.504C64.6337 17.4703 64.4219 17.4109 64.0912 17.3238C63.6655 17.2129 63.3666 17.0763 63.1943 16.916C62.9528 16.6883 62.832 16.4111 62.832 16.0844C62.832 15.8745 62.8894 15.6766 63.0023 15.4944C63.1151 15.3123 63.2795 15.1717 63.4933 15.0767C63.7071 14.9816 63.9645 14.9321 64.2674 14.9321C64.7624 14.9321 65.1326 15.045 65.3821 15.2727C65.6316 15.5004 65.7622 15.8033 65.7761 16.1834L64.9822 16.221C64.9485 16.0092 64.8753 15.8567 64.7624 15.7637C64.6495 15.6706 64.4832 15.6231 64.2595 15.6231C64.0279 15.6231 63.8477 15.6726 63.717 15.7716C63.6319 15.8349 63.5903 15.9201 63.5903 16.029C63.5903 16.126 63.6299 16.2111 63.7091 16.2804C63.8101 16.3695 64.0536 16.4606 64.4397 16.5576C64.8258 16.6526 65.1128 16.7536 65.297 16.8546C65.4831 16.9575 65.6276 17.0981 65.7325 17.2743C65.8375 17.4525 65.8889 17.6723 65.8889 17.9336C65.8889 18.1712 65.8256 18.3929 65.7009 18.5988C65.5761 18.8048 65.3979 18.9592 65.1703 19.0602C64.9426 19.1611 64.6555 19.2106 64.313 19.2106C63.816 19.2106 63.4339 19.0899 63.1666 18.8483C62.8974 18.6028 62.739 18.2504 62.6875 17.7891Z" fill="#FF0000"/>
<path d="M67.0899 14.9995H67.8838V17.2387C67.8838 17.5931 67.8937 17.8248 67.9135 17.9297C67.9472 18.098 68.0284 18.2346 68.1571 18.3376C68.2857 18.4405 68.46 18.492 68.6817 18.492C68.9074 18.492 69.0777 18.4425 69.1925 18.3475C69.3074 18.2505 69.3766 18.1317 69.3984 17.9911C69.4222 17.8505 69.4341 17.6169 69.4341 17.2882V15.0015H70.228V17.1734C70.228 17.6704 70.2062 18.0208 70.1627 18.2247C70.1191 18.4286 70.0399 18.6029 69.9251 18.7434C69.8102 18.884 69.6558 18.9969 69.4618 19.08C69.2678 19.1632 69.0163 19.2048 68.7035 19.2048C68.3273 19.2048 68.0422 19.1592 67.8482 19.0681C67.6542 18.9771 67.4997 18.8583 67.3869 18.7137C67.274 18.5672 67.1988 18.4148 67.1632 18.2544C67.1117 18.0168 67.0859 17.6684 67.0859 17.2051V14.9995H67.0899Z" fill="#FF0000"/>
<path d="M71.6133 19.1335V14.9995H72.3874L73.999 17.7594V14.9995H74.7375V19.1335H73.9396L72.3518 16.4369V19.1335H71.6133Z" fill="#FF0000"/>
<path d="M77.9485 17.6154V16.9185H79.6611V18.5657C79.4948 18.734 79.2532 18.8845 78.9365 19.0132C78.6197 19.1418 78.3009 19.2072 77.9762 19.2072C77.5644 19.2072 77.2061 19.1161 76.8992 18.934C76.5923 18.7518 76.3626 18.4924 76.2082 18.1559C76.0538 17.8193 75.9766 17.451 75.9766 17.0551C75.9766 16.6254 76.0617 16.2413 76.2339 15.9067C76.4062 15.5721 76.6576 15.3148 76.9883 15.1366C77.2397 15 77.5545 14.9307 77.9307 14.9307C78.4197 14.9307 78.8018 15.0376 79.0751 15.2534C79.3503 15.4692 79.5265 15.7662 79.6057 16.1463L78.8157 16.3007C78.7603 16.0968 78.6553 15.9384 78.5029 15.8196C78.3504 15.7028 78.1584 15.6434 77.9287 15.6434C77.5822 15.6434 77.3051 15.7582 77.1011 15.9899C76.8972 16.2215 76.7942 16.5641 76.7942 17.0194C76.7942 17.5104 76.8972 17.8787 77.1051 18.1242C77.313 18.3697 77.5842 18.4924 77.9208 18.4924C78.0871 18.4924 78.2534 18.4588 78.4217 18.3895C78.59 18.3202 78.7325 18.237 78.8533 18.14V17.6154H77.9485Z" fill="#FF0000"/>
<path d="M22.8002 23.7347H2.69658C1.20772 23.7347 0 22.5269 0 21.0381V2.69658C0 1.20772 1.20772 0 2.69658 0H25.9897C27.4786 0 28.9358 1.11665 28.6863 2.69658L26.2372 21.0381C25.9501 22.9625 24.289 23.7347 22.8002 23.7347Z" fill="#FF0000"/>
<path d="M17.9551 6.69002V14.8649C17.9551 18.3257 15.7872 20.8481 11.0949 20.8481C6.4026 20.8481 4.21484 18.3257 4.21484 14.8847V6.69002H8.48938V14.7382C8.48938 16.0726 9.36448 17.1358 11.0949 17.1358C12.8055 17.1358 13.6806 16.0726 13.6806 14.7382V6.69002H17.9551ZM10.2475 2.88867H7.56479V5.57139H10.2475V2.88867ZM14.7616 2.88867H12.0789V5.57139H14.7616V2.88867Z" fill="white"/>
</svg>
