<svg width="82" height="20" viewBox="0 0 82 20" fill="none" xmlns="http://www.w3.org/2000/svg">
<mask id="mask0_5_3922" style="mask-type:alpha" maskUnits="userSpaceOnUse" x="62" y="0" width="20" height="19">
<path fill-rule="evenodd" clip-rule="evenodd" d="M62.168 0H81.0019V18.7348H62.168V0Z" fill="white"/>
</mask>
<g mask="url(#mask0_5_3922)">
<path fill-rule="evenodd" clip-rule="evenodd" d="M73.8711 7.26489L75.5379 5.76172L77.0429 7.42558L75.3768 8.92904L73.8711 7.26489ZM78.8711 9.75267L79.982 8.75049L81.0035 9.85998L79.8748 10.8619L78.8711 9.75267ZM76.0205 3.13129L77.1315 2.11151L78.1355 3.2387L77.0236 4.24079L76.0205 3.13129ZM77.4531 6.44163L78.5641 5.43945L79.5672 6.54933L78.4565 7.55113L77.4531 6.44163ZM76.7728 14.1726L78.4397 12.6692L79.944 14.3333L78.2779 15.8539L76.7728 14.1726ZM75.3047 10.7903L76.9708 9.28711L78.4764 10.9688L76.8096 12.4728L75.3047 10.7903ZM72.3284 3.90091L73.9951 2.39783L75.5007 4.06207L73.834 5.58284L72.3284 3.90091ZM68.2256 4.97488L70.4651 2.97052L72.4722 5.2073L70.2319 7.21156L68.2256 4.97488ZM71.4149 12.6515L73.6368 10.6295L75.662 12.866L73.4217 14.8704L71.4149 12.6515ZM69.8197 8.78619L72.0598 6.78192L74.0674 9.0187L71.8268 11.0228L69.8197 8.78619ZM71.5401 0C73.0094 0 74.4074 0.340022 75.6619 0.948331C75.8587 1.03795 76.0567 1.14527 76.2528 1.25268L75.3926 2.02234L74.1031 0.680139L71.8811 2.64844L70.5725 1.23451L66.4866 4.90311L69.1026 7.78416L68.0813 8.67864L70.6622 11.5598L69.641 12.4539L73.3328 16.5518L75.5178 14.5476L77.4183 16.6955C77.0416 16.9819 76.6295 17.2687 76.182 17.5188C74.8198 18.2882 73.2425 18.7348 71.5582 18.7348C66.3787 18.7348 62.168 14.5304 62.168 9.35935C62.1497 4.22316 66.3611 0 71.5401 0Z" fill="#036CB5"/>
</g>
<mask id="mask1_5_3922" style="mask-type:alpha" maskUnits="userSpaceOnUse" x="0" y="3" width="10" height="10">
<path fill-rule="evenodd" clip-rule="evenodd" d="M0 3.85107H9.41816V12.2279H0V3.85107Z" fill="white"/>
</mask>
<g mask="url(#mask1_5_3922)">
<path fill-rule="evenodd" clip-rule="evenodd" d="M4.72652 6.33154H4.64528L3.11937 12.2279H1.87213L0 3.85107H1.29406L2.5884 10.1016H2.66918L4.17118 3.85107H5.19998L6.80631 10.1016H6.88719L8.06605 3.85107H9.41817L7.54549 12.2279H6.29743L4.72652 6.33154Z" fill="#036CB5"/>
</g>
<path fill-rule="evenodd" clip-rule="evenodd" d="M14.9035 11.6434V12.5997C14.4096 12.9267 13.7513 13.1785 12.9605 13.1785C11.1167 13.1785 10.3594 11.8701 10.3594 9.88256C10.3594 7.96944 11.2044 6.58545 12.8511 6.58545C14.2229 6.58545 15.0687 7.60524 15.0687 9.65542V10.121H11.49C11.49 11.6303 12.0276 12.2972 13.1587 12.2972C13.7513 12.2972 14.3002 12.0578 14.9035 11.6434ZM11.5121 9.27763H14.0254C13.971 7.95703 13.4107 7.42908 12.8182 7.42908C12.1486 7.42908 11.6324 8.02021 11.5121 9.27763Z" fill="#036CB5"/>
<path fill-rule="evenodd" clip-rule="evenodd" d="M18.0928 7.23657C18.4205 7.042 18.979 6.78491 19.5707 6.78491C20.9288 6.78491 21.6627 7.83411 21.6627 9.78645C21.6627 12.0681 20.6768 13.1784 19.0897 13.1784C18.5088 13.1784 17.6108 12.971 16.9534 12.5796V4.06433L18.0928 3.75977V7.23657ZM18.0813 12.1286C18.4318 12.2994 18.8154 12.3247 19.0896 12.3247C19.8999 12.3247 20.5125 11.7625 20.5125 9.78659C20.5125 8.23711 20.0088 7.73682 19.2754 7.73682C18.8369 7.73682 18.5195 7.87145 18.0813 8.13929V12.1286Z" fill="#036CB5"/>
<path fill-rule="evenodd" clip-rule="evenodd" d="M27.7971 10.4427H27.8588L30.4948 3.75977H32.0234V12.2365H30.6928V6.0912H30.5817L28.0681 12.2365H27.2803L24.7659 6.23487H24.6555V12.2365H23.5466V3.75977H25.0377L27.7971 10.4427Z" fill="#036CB5"/>
<path fill-rule="evenodd" clip-rule="evenodd" d="M32.9651 9.88211C32.9651 7.67969 34.1551 6.58545 35.7905 6.58545C37.4269 6.58545 38.6163 7.67969 38.6163 9.88211C38.6163 12.033 37.4886 13.1785 35.7905 13.1785C34.0927 13.1785 32.9651 12.033 32.9651 9.88211ZM37.3143 9.88213C37.3143 8.18381 36.6333 7.4671 35.7905 7.4671C34.9729 7.4671 34.2659 8.18381 34.2659 9.88213C34.2659 11.6059 34.9111 12.2972 35.7905 12.2972C36.67 12.2972 37.3143 11.6059 37.3143 9.88213Z" fill="#036CB5"/>
<path fill-rule="evenodd" clip-rule="evenodd" d="M39.5583 7.53899C40.0629 7.19075 41.1288 6.58545 42.4182 6.58545C43.7639 6.58545 44.2677 7.19075 44.2677 8.51663V13.1785H43.1021V8.81315C43.1021 7.79625 42.6655 7.61601 42.0928 7.61601C41.6448 7.61601 41.0721 7.84806 40.7248 8.07982V13.1785H39.5583V7.53899Z" fill="#036CB5"/>
<path fill-rule="evenodd" clip-rule="evenodd" d="M50.6957 11.6434V12.5997C50.2021 12.9267 49.5434 13.1785 48.7531 13.1785C46.9101 13.1785 46.1523 11.8701 46.1523 9.88256C46.1523 7.96944 46.997 6.58545 48.6436 6.58545C50.0161 6.58545 50.8617 7.60524 50.8617 9.65542V10.121H47.2829C47.2829 11.6303 47.8208 12.2972 48.9514 12.2972C49.5434 12.2972 50.0931 12.0578 50.6957 11.6434ZM47.3042 9.27763H49.8175C49.7635 7.95703 49.2031 7.42908 48.6104 7.42908C47.9407 7.42908 47.4254 8.02021 47.3042 9.27763Z" fill="#036CB5"/>
<path fill-rule="evenodd" clip-rule="evenodd" d="M56.1512 6.58545H57.452L55.252 12.5546C54.6435 14.2025 53.9029 15.0622 52.5055 15.0622V14.0838C53.3324 14.0838 53.8421 13.4388 54.1344 12.5546L51.8008 6.58545H53.1379L54.6935 10.9793H54.7664L56.1512 6.58545Z" fill="#036CB5"/>
<path fill-rule="evenodd" clip-rule="evenodd" d="M43.3141 15.5685H44.2709L44.1191 15.984H43.3141V17.5965C43.3141 18.0039 43.4875 18.2076 43.8343 18.2076C43.9678 18.2076 44.1026 18.1793 44.2404 18.122V18.5128C44.0506 18.5863 43.8248 18.6233 43.5616 18.6233C43.2593 18.6233 43.0374 18.5365 42.896 18.3629C42.7546 18.1905 42.6836 17.9632 42.6836 17.6815V15.1648L43.3141 14.7061V15.5685ZM41.0992 17.1503H40.7779C40.1156 17.1503 39.7844 17.3481 39.7844 17.7433C39.7844 17.8823 39.8289 17.9821 39.9176 18.0456C40.0067 18.1089 40.1174 18.1401 40.2509 18.1401C40.4203 18.1401 40.5834 18.0993 40.7415 18.0177C40.8988 17.9367 41.0182 17.8431 41.0992 17.7371V17.1503ZM41.7301 18.5493H41.1549L41.1123 18.195C40.7648 18.4805 40.418 18.6233 40.0709 18.6233C39.7801 18.6233 39.555 18.5451 39.3955 18.3877C39.2358 18.231 39.1562 18.033 39.1562 17.792C39.1562 17.6656 39.1795 17.5447 39.226 17.4286C39.2723 17.3123 39.3491 17.1997 39.4562 17.0897C39.5634 16.9796 39.7244 16.8913 39.9405 16.8238C40.1566 16.7562 40.4162 16.7228 40.7185 16.7228H41.0945V16.5579C41.0945 16.285 41.0437 16.0992 40.9434 15.9989C40.8417 15.899 40.6723 15.8492 40.4344 15.8492C40.1435 15.8492 39.7861 15.9688 39.3622 16.2097V15.721C39.7985 15.5215 40.2262 15.4209 40.646 15.4209C41.0541 15.4209 41.3363 15.5049 41.4939 15.6723C41.6513 15.8389 41.7301 16.0918 41.7301 16.429V18.5493ZM38.3824 15.6658V16.1539C38.0796 15.9505 37.7727 15.8491 37.4621 15.8491C37.3045 15.8491 37.1754 15.8796 37.0742 15.9409C36.9734 16.0015 36.9228 16.0997 36.9228 16.2334C36.9228 16.3604 36.9783 16.4609 37.0893 16.5361C37.2004 16.6117 37.375 16.6881 37.6135 16.7649C37.7467 16.8098 37.8464 16.8447 37.9129 16.869C37.9798 16.8941 38.0673 16.9349 38.1765 16.9915C38.2855 17.0488 38.3674 17.1052 38.4218 17.1627C38.4763 17.2199 38.5257 17.2949 38.5703 17.3889C38.6147 17.4825 38.6367 17.586 38.6367 17.7002C38.6367 17.9815 38.5246 18.2053 38.3008 18.3724C38.0767 18.5394 37.7767 18.6232 37.4015 18.6232C36.9814 18.6232 36.6319 18.5335 36.3535 18.3538V17.8776C36.7087 18.089 37.0339 18.195 37.3289 18.195C37.7727 18.195 37.9948 18.0488 37.9948 17.7551C37.9948 17.6985 37.9817 17.645 37.9555 17.5964C37.9292 17.5476 37.899 17.5079 37.8647 17.4772C37.8303 17.4467 37.7747 17.4122 37.6979 17.3729C37.6212 17.3349 37.5568 17.3067 37.5042 17.2879C37.4518 17.2698 37.369 17.2402 37.2561 17.1997C37.0904 17.1384 36.9591 17.0856 36.8622 17.0406C36.7651 16.9954 36.6685 16.9376 36.5715 16.8666C36.4745 16.7953 36.4037 16.7102 36.3596 16.6128C36.3153 16.5154 36.293 16.3989 36.293 16.2646C36.293 16.0935 36.3333 15.9473 36.4141 15.8254C36.4948 15.7023 36.6 15.6148 36.7289 15.5621C36.8582 15.5089 36.9762 15.472 37.0833 15.4523C37.1904 15.4313 37.2963 15.4208 37.4015 15.4208C37.7448 15.4208 38.0716 15.5026 38.3824 15.6658ZM33.3682 14.5536C33.3682 14.4436 33.4096 14.3472 33.4919 14.2632C33.5746 14.1797 33.6706 14.1379 33.7799 14.1379C33.8887 14.1379 33.9849 14.1797 34.0673 14.2632C34.1503 14.3472 34.1916 14.4436 34.1916 14.5536C34.1916 14.6635 34.1503 14.7606 34.0673 14.8444C33.9849 14.9271 33.8887 14.969 33.7799 14.969C33.6706 14.969 33.5746 14.9271 33.4919 14.8444C33.4096 14.7606 33.3682 14.6635 33.3682 14.5536ZM34.0947 15.4523V18.5493H33.4646V15.6047L34.0947 15.4523ZM31.9033 15.5685H32.8603L32.7088 15.984H31.9033V17.5965C31.9033 18.0039 32.0769 18.2076 32.4241 18.2076C32.5573 18.2076 32.6925 18.1793 32.8303 18.122V18.5128C32.6404 18.5863 32.4141 18.6233 32.1518 18.6233C31.8489 18.6233 31.6268 18.5365 31.4854 18.3629C31.3442 18.1905 31.2734 17.9632 31.2734 17.6815V15.1648L31.9033 14.7061V15.5685ZM27.7776 18.5493V15.8736C28.2742 15.5719 28.789 15.4208 29.3222 15.4208C29.6815 15.4208 29.9377 15.4948 30.0911 15.6416C30.2447 15.7882 30.3213 16.0203 30.3213 16.3377V18.5493H29.6916V16.4783C29.6916 16.2545 29.645 16.1035 29.5523 16.0265C29.4593 15.9487 29.3242 15.9103 29.1464 15.9103C28.9043 15.9103 28.6579 15.9839 28.4077 16.1304V18.5493H27.7776ZM25.7323 15.8311C25.5428 15.8311 25.3832 15.9065 25.2539 16.0566C25.1249 16.2075 25.044 16.432 25.0117 16.7285H26.3986C26.3824 16.4274 26.3118 16.203 26.1866 16.0543C26.0617 15.9053 25.9102 15.8311 25.7323 15.8311ZM25.9231 18.195C26.2141 18.195 26.5347 18.0891 26.8861 17.8777V18.342C26.5632 18.5296 26.2059 18.6233 25.8142 18.6233C25.3216 18.6233 24.9593 18.4826 24.7272 18.2014C24.4949 17.9201 24.3789 17.5273 24.3789 17.0222C24.3789 16.5413 24.498 16.154 24.7359 15.8617C24.9744 15.5684 25.3133 15.4209 25.7534 15.4209C26.1414 15.4209 26.4417 15.5475 26.6562 15.8004C26.8702 16.0533 26.9768 16.4234 26.9768 16.9121V17.1385H25.0027C25.0027 17.5011 25.0774 17.7683 25.2266 17.9383C25.3761 18.1101 25.6082 18.195 25.9231 18.195ZM22.8356 14.5536C22.8356 14.4436 22.8768 14.3472 22.9596 14.2632C23.0426 14.1797 23.1385 14.1379 23.2471 14.1379C23.3564 14.1379 23.4523 14.1797 23.5352 14.2632C23.618 14.3472 23.6593 14.4436 23.6593 14.5536C23.6593 14.6635 23.618 14.7606 23.5352 14.8444C23.4523 14.9271 23.3564 14.969 23.2471 14.969C23.1385 14.969 23.0426 14.9271 22.9596 14.8444C22.8768 14.7606 22.8356 14.6635 22.8356 14.5536ZM23.5626 15.4523V18.5493H22.9328V15.6047L23.5626 15.4523ZM20.1375 16.075V17.927C20.2182 18.004 20.3199 18.0614 20.4432 18.1003C20.5664 18.139 20.6745 18.1583 20.7673 18.1583C20.9892 18.1583 21.164 18.0722 21.2912 17.8992C21.4184 17.7257 21.4817 17.4111 21.4817 16.9552C21.4817 16.5846 21.4165 16.313 21.2852 16.1428C21.154 15.9711 20.9832 15.886 20.7732 15.886C20.5354 15.886 20.3234 15.9488 20.1375 16.075ZM19.5156 19.7717V15.8679C19.6934 15.733 19.903 15.6247 20.1455 15.5434C20.3879 15.4626 20.6257 15.4209 20.8603 15.4209C21.6998 15.4209 22.1199 15.9324 22.1199 16.9552C22.1199 17.4847 22.0109 17.89 21.7928 18.1705C21.5747 18.4519 21.2622 18.5919 20.8541 18.5919C20.5714 18.5919 20.3351 18.5206 20.1455 18.3789V19.7717H19.5156ZM17.9003 17.1503H17.579C16.9168 17.1503 16.5858 17.3481 16.5858 17.7433C16.5858 17.8823 16.6301 17.9821 16.719 18.0456C16.808 18.1089 16.9191 18.1401 17.0524 18.1401C17.2216 18.1401 17.3853 18.0993 17.5428 18.0177C17.7002 17.9367 17.8194 17.8431 17.9003 17.7371V17.1503ZM18.531 18.5493H17.9558L17.9132 18.195C17.5658 18.4805 17.2188 18.6233 16.8715 18.6233C16.5809 18.6233 16.3557 18.5451 16.1964 18.3877C16.0366 18.231 15.957 18.033 15.957 17.792C15.957 17.6656 15.9802 17.5447 16.0267 17.4286C16.0731 17.3123 16.1499 17.1997 16.2567 17.0897C16.3638 16.9796 16.5252 16.8913 16.7411 16.8238C16.9571 16.7562 17.2167 16.7228 17.5196 16.7228H17.8952V16.5579C17.8952 16.285 17.8447 16.0992 17.7438 15.9989C17.6426 15.899 17.4731 15.8492 17.235 15.8492C16.9443 15.8492 16.5868 15.9688 16.163 16.2097V15.721C16.5992 15.5215 17.0269 15.4209 17.4468 15.4209C17.8544 15.4209 18.1374 15.5049 18.2945 15.6723C18.4523 15.8389 18.531 16.0918 18.531 16.429V18.5493ZM12.3673 18.3482V17.8225C12.8194 18.0507 13.2496 18.1652 13.6571 18.1652C13.9967 18.1652 14.2568 18.1033 14.4385 17.9784C14.6202 17.8544 14.7113 17.6867 14.7113 17.4746C14.7113 17.2627 14.6364 17.1037 14.4869 16.9979C14.3378 16.8923 14.059 16.7614 13.6512 16.6066C13.5097 16.5537 13.4193 16.5194 13.3785 16.5029C13.3383 16.487 13.2596 16.4539 13.1423 16.4052C13.0253 16.3567 12.9486 16.3197 12.9125 16.2954C12.876 16.2703 12.8147 16.2335 12.7276 16.1853C12.6409 16.1359 12.5824 16.0924 12.5519 16.0544C12.522 16.0152 12.4804 15.9659 12.4278 15.9068C12.3754 15.8481 12.3399 15.7897 12.3217 15.7302C12.3037 15.6712 12.2863 15.6029 12.2704 15.5254C12.2543 15.4477 12.2461 15.3645 12.2461 15.2747C12.2461 14.9284 12.3745 14.6501 12.6306 14.438C12.8873 14.2266 13.2413 14.1206 13.6937 14.1206C14.0933 14.1206 14.4913 14.1938 14.8867 14.3405V14.8961C14.5032 14.7085 14.1196 14.6156 13.736 14.6156C13.4655 14.6156 13.2636 14.6717 13.1303 14.7856C12.9971 14.8996 12.9304 15.0503 12.9304 15.238C12.9304 15.4377 12.9971 15.5891 13.1303 15.6931C13.2636 15.7977 13.502 15.9127 13.8453 16.0386C14.4345 16.2546 14.8404 16.45 15.0623 16.6254C15.2845 16.8 15.3955 17.0614 15.3955 17.4071C15.3955 17.77 15.2431 18.0665 14.9383 18.2967C14.6334 18.5268 14.2146 18.6419 13.6815 18.6419C13.1931 18.6419 12.7549 18.5437 12.3673 18.3482Z" fill="#B6B6B6"/>
</svg>
