<svg width="76" height="17" viewBox="0 0 76 17" fill="none" xmlns="http://www.w3.org/2000/svg">
<g clip-path="url(#clip0_5_3899)">
<path d="M13.3234 0H9.59563C9.59563 3.05912 8.19144 5.85077 5.75084 7.68958L4.27979 8.79287L9.99682 16.5828H14.6942L9.42846 9.41138C11.9192 6.93734 13.3234 3.59404 13.3234 0Z" fill="#070C11"/>
<path d="M3.81087 0H-0.000488281V16.5828H3.81087V0Z" fill="#070C11"/>
<path d="M19.3941 0H15.8V16.5828H19.3941V0Z" fill="#070C11"/>
<path d="M50.9199 4.79785C49.5491 4.79785 48.2452 5.21576 47.376 6.40263V5.11546H43.9658V16.583H47.4261V10.565C47.4261 8.82652 48.5963 7.97398 50.0005 7.97398C51.505 7.97398 52.3742 8.87667 52.3742 10.5483V16.5997H55.8011V9.29459C55.8011 6.61995 53.6781 4.79785 50.9199 4.79785Z" fill="#070C11"/>
<path d="M30.2584 5.11546V5.85099C29.2888 5.18233 28.1187 4.79785 26.8482 4.79785C23.5049 4.79785 20.7969 7.50592 20.7969 10.8492C20.7969 14.1925 23.5049 16.9006 26.8482 16.9006C28.1187 16.9006 29.2888 16.5161 30.2584 15.8474V16.583H33.6853V5.11546H30.2584ZM27.1324 13.7913C25.4106 13.7913 24.0232 12.4707 24.0232 10.8492C24.0232 9.22772 25.4106 7.90712 27.1324 7.90712C28.8542 7.90712 30.2417 9.22772 30.2417 10.8492C30.2417 12.4707 28.8542 13.7913 27.1324 13.7913Z" fill="#070C11"/>
<path d="M39.0002 6.603V5.11523H35.4897V16.5827H39.0169V11.2335C39.0169 9.42809 40.9728 8.45853 42.3268 8.45853C42.3435 8.45853 42.3602 8.45853 42.3602 8.45853V5.11523C40.9728 5.11523 39.6856 5.71703 39.0002 6.603Z" fill="#070C11"/>
<path d="M66.4651 5.11546V5.85099C65.4955 5.18233 64.3254 4.79785 63.0549 4.79785C59.7116 4.79785 57.0035 7.50592 57.0035 10.8492C57.0035 14.1925 59.7116 16.9006 63.0549 16.9006C64.3254 16.9006 65.4955 16.5161 66.4651 15.8474V16.583H69.8919V5.11546H66.4651ZM63.3391 13.7913C61.6173 13.7913 60.2298 12.4707 60.2298 10.8492C60.2298 9.22772 61.6173 7.90712 63.3391 7.90712C65.0609 7.90712 66.4484 9.22772 66.4484 10.8492C66.4651 12.4707 65.0609 13.7913 63.3391 13.7913Z" fill="#070C11"/>
<path d="M72.5514 5.44959C72.5514 5.28243 72.4344 5.18213 72.2505 5.18213H71.9329V6.05139H72.0833V5.73377H72.2505L72.3842 6.05139H72.5514L72.4009 5.70034C72.5012 5.65019 72.5514 5.56661 72.5514 5.44959ZM72.2505 5.58332H72.0833V5.31586H72.2505C72.3508 5.31586 72.4009 5.36601 72.4009 5.44959C72.4009 5.53317 72.3675 5.58332 72.2505 5.58332Z" fill="#070C11"/>
<path d="M72.2013 4.81445C71.75 4.81445 71.3822 5.18222 71.3822 5.63356C71.3989 6.08491 71.75 6.45267 72.2013 6.45267C72.6527 6.45267 73.0204 6.08491 73.0204 5.63356C73.0204 5.18222 72.6527 4.81445 72.2013 4.81445ZM72.2013 6.30222C71.8335 6.30222 71.5494 6.00132 71.5494 5.63356C71.5494 5.2658 71.8503 4.9649 72.2013 4.9649C72.5691 4.9649 72.8533 5.2658 72.8533 5.63356C72.8533 6.00132 72.5524 6.30222 72.2013 6.30222Z" fill="#070C11"/>
<path d="M73.5557 12.521C72.3688 12.521 71.3993 13.4906 71.3993 14.6774C71.3993 15.8643 72.3688 16.8338 73.5557 16.8338C74.7426 16.8338 75.7121 15.8643 75.7121 14.6774C75.7121 13.4738 74.7426 12.521 73.5557 12.521Z" fill="#070C11"/>
</g>
<defs>
<clipPath id="clip0_5_3899">
<rect width="75.709" height="16.9004" fill="white"/>
</clipPath>
</defs>
</svg>
