<svg width="75" height="20" viewBox="0 0 75 20" fill="none" xmlns="http://www.w3.org/2000/svg">
<path d="M8.07367 12.3846C7.97147 12.4357 7.85998 12.4635 7.7392 12.4635C7.46048 12.4635 7.21892 12.3102 7.09349 12.0873L7.04704 11.9804L5.0263 7.54873C5.00307 7.50228 4.98914 7.44653 4.98914 7.39079C4.98914 7.18639 5.15637 7.01916 5.36077 7.01916C5.44439 7.01916 5.51871 7.04703 5.58375 7.09348L7.96683 8.78904C8.13871 8.90518 8.34775 8.97021 8.57073 8.97021C8.70544 8.97021 8.83087 8.94699 8.95165 8.90053L20.1609 3.91605C18.1541 1.54691 14.842 0 11.0978 0C4.96591 0 0 4.13903 0 9.24894C0 12.0362 1.49581 14.5447 3.83244 16.2402C4.01825 16.3749 4.14368 16.5933 4.14368 16.8441C4.14368 16.9277 4.1251 17.0021 4.10652 17.081C3.9207 17.7778 3.61875 18.8927 3.60481 18.9485C3.58159 19.0367 3.54442 19.125 3.54442 19.2179C3.54442 19.4223 3.71166 19.5895 3.91606 19.5895C3.99503 19.5895 4.06006 19.5617 4.12974 19.5199L6.55928 18.117C6.74045 18.0101 6.93555 17.9451 7.14924 17.9451C7.26073 17.9451 7.37222 17.9637 7.47442 17.9962C8.60789 18.3213 9.82962 18.5025 11.0978 18.5025C17.2251 18.5025 22.1956 14.3635 22.1956 9.25358C22.1956 7.70667 21.7357 6.24803 20.9321 4.9659L8.15264 12.3381L8.07367 12.3846Z" fill="#00B900"/>
<path d="M34.1996 10.6102L34.051 11.1352C33.9256 11.5718 33.8187 11.9574 33.7258 12.3383C33.605 11.7762 33.4378 11.1491 33.2891 10.5963L32.2997 6.86607L32.2811 6.80103H31.6308L30.5251 10.6195C30.3254 11.2652 30.1535 11.8505 30.0281 12.3569C29.9352 11.9527 29.8191 11.5021 29.6983 11.033L28.6252 6.86607L28.6066 6.80103H27.8587L29.6565 13.6065L29.675 13.6715H30.3115L31.4682 9.77407C31.6679 9.10978 31.8212 8.58485 31.9327 8.12961C32.0303 8.61273 32.1696 9.1423 32.3368 9.76942L33.3356 13.6065L33.3542 13.6715H33.9999L36.0253 6.91252L36.0624 6.79639H35.3099L34.1996 10.6102Z" fill="#00B900"/>
<path d="M38.4266 8.58936C37.0841 8.58936 36.1782 9.66708 36.1782 11.2697C36.1782 12.7609 37.1119 13.7643 38.5056 13.7643C39.3789 13.7643 39.8759 13.5413 40.0525 13.4438L40.1593 13.3834L39.8434 12.8399L39.7691 12.8724C39.5229 12.9885 39.1884 13.1047 38.566 13.1047C37.5486 13.1047 36.9447 12.4357 36.9029 11.2651H40.3498L40.373 11.1629C40.3962 11.0607 40.3962 10.9864 40.3962 10.8517C40.3962 10.6658 40.373 10.0248 40.0385 9.46733C39.6855 8.88666 39.1466 8.58936 38.4266 8.58936ZM36.9354 10.6333C37.1166 9.61134 37.7902 9.24435 38.3662 9.24435C38.7332 9.24435 39.0258 9.35584 39.2395 9.57418C39.5554 9.89471 39.6251 10.3592 39.639 10.638H36.9354V10.6333Z" fill="#00B900"/>
<path d="M45.9384 12.8306C45.5668 13.0025 45.0465 13.1047 44.5448 13.1047C42.8771 13.1047 41.8783 12.0502 41.8783 10.2803C41.8783 8.44541 42.905 7.3491 44.6238 7.3491C45.0976 7.3491 45.5528 7.43736 45.8966 7.59995L45.9709 7.63711L46.3054 7.05644L46.2032 7.00069C46.0685 6.92637 45.5621 6.68945 44.6098 6.68945C42.5241 6.68945 41.1258 8.12952 41.1258 10.271C41.1258 12.8492 42.8817 13.7644 44.3868 13.7644C45.2323 13.7644 45.8966 13.5832 46.2311 13.416L46.3426 13.3602L46.0174 12.7935L45.9384 12.8306Z" fill="#00B900"/>
<path d="M49.3344 8.58941C48.9674 8.58941 48.6143 8.69161 48.317 8.88207C48.1451 8.97962 47.9872 9.11434 47.8525 9.27693V6.68945H47.1232V13.6668H47.8525V10.6613C47.8525 10.4801 47.8618 10.3639 47.9036 10.2339C48.108 9.6625 48.6422 9.25835 49.2043 9.25835C50.217 9.25835 50.3703 10.1921 50.3703 10.7495V13.6668H51.0996V10.7031C51.1042 8.69161 49.6317 8.58941 49.3344 8.58941Z" fill="#00B900"/>
<path d="M57.6122 7.6416H56.8829V8.7472H56.0885V9.34181H56.8829V12.1848C56.8829 12.7515 56.9897 13.1464 57.2034 13.3926C57.3985 13.6434 57.7144 13.7735 58.1092 13.7735C58.3833 13.7735 58.6249 13.7317 58.82 13.6434L58.9361 13.5923L58.6295 13.0628L58.5645 13.0767C58.453 13.0999 58.3183 13.1139 58.165 13.1139C57.7748 13.1139 57.6075 12.863 57.6075 12.273V9.34181H58.9501V8.7472H57.6075V7.6416H57.6122Z" fill="#00B900"/>
<path d="M63.7259 6.74512C63.2428 6.74512 62.755 6.78693 62.2812 6.87519L62.1744 6.89377V13.6667H62.9037V10.8749C63.0988 10.912 63.3171 10.9213 63.5773 10.9213C64.4506 10.9213 65.1753 10.6426 65.6166 10.1455C65.9511 9.77854 66.109 9.31865 66.109 8.73334C66.109 8.16195 65.9186 7.68348 65.5609 7.34437C65.1614 6.95416 64.5296 6.74512 63.7259 6.74512ZM62.9037 7.45586C63.0477 7.43263 63.3125 7.40011 63.7074 7.40011C64.7711 7.40011 65.3843 7.90181 65.3843 8.77979C65.3843 9.72744 64.7433 10.271 63.6191 10.271C63.4008 10.271 63.1267 10.2617 62.9037 10.2059V7.45586Z" fill="#00B900"/>
<path d="M74.1451 8.70068L72.9651 11.8363C72.8722 12.0825 72.7886 12.3287 72.7189 12.5378C72.6446 12.3101 72.561 12.0732 72.482 11.8642L71.2464 8.7843L71.2138 8.70068H70.4334L72.2498 13.2439C72.3009 13.3693 72.3009 13.4018 72.3009 13.4018C72.3009 13.4343 72.2776 13.4994 72.2498 13.5597C72.0175 14.1172 71.7109 14.4888 71.4926 14.7025C71.1953 14.9859 70.8794 15.1345 70.7121 15.1949L70.5821 15.2414L71.1302 15.8127C71.2556 15.7663 71.4461 15.6223 71.8131 15.3157C72.4402 14.7675 72.8351 13.936 73.439 12.3938L74.8744 8.82611L74.9255 8.70533H74.1451V8.70068Z" fill="#00B900"/>
<path d="M55.5173 12.422V10.5778C55.5173 9.28175 54.9087 8.59424 53.7613 8.59424C53.255 8.59424 52.7068 8.75218 52.3073 9.01697L52.233 9.06342L52.5489 9.61158L52.6279 9.56048C52.9252 9.36073 53.3061 9.24924 53.7102 9.24924H53.7288C54.054 9.24924 54.3048 9.3375 54.4767 9.50938C54.6858 9.71842 54.788 10.0436 54.788 10.5035C53.6591 10.5081 52.8462 10.7497 52.3677 11.2235C52.0658 11.5255 51.9125 11.9064 51.9125 12.3616C51.9125 13.0492 52.3863 13.7878 53.4269 13.7878C54.1515 13.7878 54.6161 13.4394 54.8576 13.1792L54.9087 13.6763H55.6102L55.587 13.5276C55.5266 13.156 55.5173 12.7751 55.5173 12.422ZM52.9252 11.6091C53.2411 11.3025 53.8403 11.1446 54.6951 11.1446H54.7833V12.0272C54.7833 12.0876 54.774 12.1805 54.7415 12.2687C54.6021 12.6822 54.1934 13.1235 53.4687 13.1235C53.0924 13.1235 52.6557 12.9005 52.6557 12.2734C52.6604 12.0039 52.7486 11.7763 52.9252 11.6091Z" fill="#00B900"/>
<path d="M69.8901 12.422V10.5778C69.8901 9.28175 69.2815 8.59424 68.1341 8.59424C67.6557 8.59424 67.1307 8.73824 66.7359 8.98445L66.6615 9.0309L66.9728 9.57441L67.0518 9.52331C67.3398 9.34679 67.7068 9.24459 68.083 9.24459H68.1016C68.4268 9.24459 68.6776 9.33285 68.8495 9.50473C69.0586 9.71377 69.1608 10.039 69.1608 10.4988C68.0366 10.5035 67.2236 10.745 66.7452 11.2189C66.4432 11.5208 66.2899 11.9017 66.2899 12.357C66.2899 13.0445 66.7637 13.7831 67.8043 13.7831C68.529 13.7831 68.9935 13.4347 69.2351 13.1746L69.2862 13.6716H69.9876L69.9644 13.523C69.8994 13.156 69.8901 12.7751 69.8901 12.422ZM69.1608 12.0272C69.1608 12.0876 69.1515 12.1805 69.119 12.2687C68.9796 12.6822 68.5708 13.1235 67.8461 13.1235C67.4698 13.1235 67.0332 12.9005 67.0332 12.2734C67.0332 12.0039 67.1214 11.7763 67.298 11.6091C67.6138 11.3025 68.2131 11.1446 69.0679 11.1446H69.1561L69.1608 12.0272Z" fill="#00B900"/>
</svg>
