<svg width="69" height="24" viewBox="0 0 69 24" fill="none" xmlns="http://www.w3.org/2000/svg">
<g clip-path="url(#clip0_5_4483)">
<path d="M3.91468 0C1.75074 0 0 1.71449 0 3.83116V20.0802C0 22.1952 1.75074 23.9107 3.91468 23.9107H20.5239C22.6861 23.9107 24.4376 22.1953 24.4376 20.0802V19.914C24.3648 19.8843 18.0866 17.322 14.8954 15.8207C12.7426 18.4129 9.9657 19.9856 7.08255 19.9856C2.20719 19.9856 0.551596 15.8108 2.86007 13.0625C3.36342 12.4635 4.21965 11.8911 5.54857 11.5707C7.62745 11.071 10.9359 11.8828 14.0368 12.884C14.5945 11.8786 15.0638 10.7714 15.4133 9.5925H5.85741V8.64555H10.7848V6.94764H4.81685V5.99989H10.7848V3.57779C10.7848 3.57779 10.7848 3.16979 11.2074 3.16979H13.6162V5.99988H19.516V6.94763H13.6162V8.64554H18.432C17.9711 10.4927 17.2715 12.193 16.3931 13.6856C17.8547 14.2029 19.1667 14.6936 20.1445 15.014C23.4059 16.0817 24.3199 16.2122 24.4379 16.2259V3.83124C24.4379 1.71457 22.6863 7.9703e-05 20.5242 7.9703e-05H3.91495L3.91468 0ZM6.59454 12.9549C6.38528 12.9573 6.17506 12.9684 5.96327 12.9889C5.35279 13.0489 4.20655 13.3125 3.57991 13.8548C1.70165 15.4576 2.82583 18.3876 6.62737 18.3876C8.83722 18.3876 11.0452 17.0052 12.7797 14.7918C10.5436 13.7242 8.61747 12.9319 6.59452 12.9549L6.59454 12.9549Z" fill="#00A1E9"/>
<path d="M66.9408 16.622L65.85 18.9465L64.7429 16.622H63.6614L65.3457 19.8358V22.0776H66.3379V19.8358L66.3439 19.8233L68.0214 16.622L66.9408 16.622ZM58.9539 18.0283L59.7233 20.291H58.1572L58.9539 18.0283ZM59.9597 20.9785L60.3304 22.0773H61.3703L59.3229 16.6216H58.5279L56.4873 22.0773H57.528L57.9149 20.9785H59.9597ZM52.1991 19.2301H51.0946V17.3637H52.1991C52.7543 17.3637 53.086 17.8401 53.086 18.3006C53.086 18.7511 52.7756 19.23 52.1991 19.23V19.2301ZM52.2552 16.6219H50.0947V22.0775H51.0946V19.9801H52.2552C53.3333 19.9801 54.0866 19.2893 54.0866 18.3006C54.0866 17.3119 53.3333 16.622 52.2552 16.622L52.2552 16.6219ZM45.0399 22.0776H46.0407V16.622H45.0399V22.0776ZM38.0057 16.622V22.0777H41.3719V21.3343H39.0056V16.622L38.0057 16.622ZM32.3092 18.0283L33.0779 20.291H31.5126L32.3092 18.0283ZM33.3151 20.9785L33.6858 22.0773H34.7249L32.6774 16.6216H31.8833L29.8427 22.0773H30.8825L31.2694 20.9785H33.3151ZM40.3547 5.9569H36.0652V4.44844H41.0392V3.50898H36.0652V1.59754H33.8477C33.6046 1.59754 33.4082 1.79778 33.4082 2.04391V3.509H28.469V4.44846H33.4082V5.95692H29.2393V6.8955H37.5427C37.5427 6.8955 37.0828 8.65845 34.8049 10.5532C32.7643 9.0372 32.0824 7.82994 32.0824 7.82994H29.8547C30.756 9.36263 32.0365 10.5899 33.4156 11.5635C32.1487 12.3712 30.506 13.1496 28.382 13.7728V14.8975C28.382 14.8975 31.6589 14.291 34.8262 12.4596C37.9985 14.2768 41.1844 14.8975 41.1844 14.8975V13.8329C39.1455 13.1046 37.53 12.3036 36.2614 11.531C38.0989 10.1953 39.7093 8.38228 40.3546 5.95692L40.3547 5.9569ZM54.2885 1.78575H52.0557V4.07513H46.552V4.99706H52.0557V13.228C52.0362 13.4165 51.8848 13.5634 51.6952 13.5734H50.5602V14.527H53.4545C53.9127 14.5087 54.2783 14.1357 54.2886 13.6735V4.99704H55.1949V4.07511H54.2886L54.2885 1.78575ZM49.5797 6.55015C49.4981 6.38662 49.3315 6.27399 49.1376 6.27232H47.2773L48.727 10.751H50.9275L49.5797 6.55015ZM44.0846 1.67735L41.5236 7.62192H43.4885V14.6953H45.6371V5.31268H44.8583L46.4764 1.67751L44.0846 1.67735ZM68.9996 14.3708L68.2149 11.7694C68.1621 11.6034 68.0091 11.4832 67.8271 11.4832H65.7466L66.3502 13.4815H63.904V9.61023H68.7071V8.6891H63.904V6.86693H68.7071V5.9458H56.7213V6.86693H61.5236V8.6891H56.7213V9.61023H61.5236V13.4815H56.7213V14.4026H69.0001L68.9899 14.3709L68.9996 14.3708ZM59.2186 3.74803H66.2137V5.10713H68.7126V3.49689C68.7117 3.49355 68.7117 3.49188 68.7117 3.48771C68.7117 3.12561 68.4226 2.83277 68.0647 2.82693H64.0209V1.55957H61.4063V2.82693H56.7205V5.10715H59.2186L59.2186 3.74803Z" fill="#3F3B3A"/>
</g>
<defs>
<clipPath id="clip0_5_4483">
<rect width="69" height="23.9109" fill="white"/>
</clipPath>
</defs>
</svg>
